<svg width="272" height="272" viewBox="0 0 272 272" fill="none" xmlns="http://www.w3.org/2000/svg">
<g opacity="0.67" filter="url(#filter0_f_1672_5361)">
<path d="M234 136C234 114.188 226.723 92.9992 213.322 75.7895C199.921 58.5797 181.161 46.3327 160.014 40.9878C138.867 35.6429 116.541 37.5057 96.5723 46.2812C76.6034 55.0567 60.1328 70.2433 49.769 89.436L72.4876 101.704C80.1209 87.5677 92.2521 76.3822 106.96 69.9187C121.668 63.4552 138.112 62.0832 153.687 66.0199C169.263 69.9566 183.08 78.977 192.951 91.6527C202.821 104.328 208.181 119.935 208.181 136H234Z" fill="#FFB803"/>
</g>
<g filter="url(#filter1_f_1672_5361)">
<path d="M51.0486 87.1403C43.3951 100.447 38.9747 115.366 38.1437 130.695C37.3127 146.023 40.0943 161.333 46.2643 175.389C52.4344 189.446 61.8203 201.856 73.6657 211.62C85.5111 221.385 99.4847 228.23 114.46 231.604L120.135 206.416C109.105 203.931 98.813 198.889 90.0884 191.697C81.3638 184.506 74.4507 175.365 69.9063 165.012C65.3618 154.659 63.313 143.383 63.9251 132.093C64.5372 120.803 67.793 109.814 73.4301 100.013L51.0486 87.1403Z" fill="#0E0C6D"/>
</g>
<g opacity="0.67" filter="url(#filter2_f_1672_5361)">
<path d="M108.372 230.025C123.101 234.353 138.64 235.16 153.737 232.382C168.835 229.603 183.068 223.317 195.291 214.029C207.514 204.742 217.384 192.713 224.106 178.912C230.827 165.11 234.213 149.923 233.99 134.574L208.173 134.95C208.338 146.255 205.844 157.441 200.893 167.606C195.942 177.771 188.673 186.631 179.67 193.472C170.668 200.312 160.184 204.942 149.064 206.989C137.944 209.035 126.499 208.441 115.651 205.253L108.372 230.025Z" fill="#F324EC"/>
</g>
<path d="M109.5 225.187C123.627 229.338 138.532 230.113 153.013 227.448C167.494 224.783 181.147 218.753 192.871 209.844C204.595 200.936 214.062 189.398 220.509 176.16C226.957 162.922 230.204 148.355 229.99 133.632L205.227 133.992C205.385 144.836 202.993 155.566 198.244 165.316C193.496 175.066 186.523 183.564 177.888 190.126C169.253 196.687 159.197 201.128 148.531 203.091C137.865 205.054 126.887 204.484 116.482 201.426L109.5 225.187Z" fill="#F324EC"/>
<path d="M230 136C230 115.387 223.225 95.3458 210.717 78.9615C198.209 62.5772 180.663 50.7584 160.779 45.3247C140.895 39.8911 119.777 41.1438 100.675 48.8901C81.5729 56.6364 65.5468 70.4467 55.0638 88.1949L76.3874 100.79C84.1085 87.7175 95.9124 77.5457 109.982 71.8403C124.051 66.1348 139.606 65.2121 154.251 69.2142C168.896 73.2163 181.819 81.9213 191.032 93.989C200.244 106.057 205.235 120.818 205.235 136H230Z" fill="#FFB803"/>
<path d="M61.9335 78.1195C52.4831 90.2126 46.1376 104.436 43.4512 119.547C40.7648 134.657 41.8192 150.196 46.5224 164.806C51.2256 179.415 59.4345 192.65 70.4319 203.356C81.4294 214.062 94.8809 221.911 109.612 226.22L116.564 202.45C105.714 199.277 95.8067 193.495 87.7066 185.61C79.6066 177.725 73.5604 167.977 70.0963 157.216C66.6323 146.456 65.8556 135.011 67.8343 123.881C69.8129 112.752 74.4866 102.276 81.4472 93.3688L61.9335 78.1195Z" fill="#0E0C6D"/>
<defs>
<filter id="filter0_f_1672_5361" x="12.1686" y="0.400002" width="259.431" height="173.2" filterUnits="userSpaceOnUse" color-interpolation-filters="sRGB">
<feFlood flood-opacity="0" result="BackgroundImageFix"/>
<feBlend mode="normal" in="SourceGraphic" in2="BackgroundImageFix" result="shape"/>
<feGaussianBlur stdDeviation="18.8" result="effect1_foregroundBlur_1672_5361"/>
</filter>
<filter id="filter1_f_1672_5361" x="0.400002" y="49.5406" width="157.335" height="219.663" filterUnits="userSpaceOnUse" color-interpolation-filters="sRGB">
<feFlood flood-opacity="0" result="BackgroundImageFix"/>
<feBlend mode="normal" in="SourceGraphic" in2="BackgroundImageFix" result="shape"/>
<feGaussianBlur stdDeviation="18.8" result="effect1_foregroundBlur_1672_5361"/>
</filter>
<filter id="filter2_f_1672_5361" x="70.7721" y="96.9742" width="200.828" height="174.626" filterUnits="userSpaceOnUse" color-interpolation-filters="sRGB">
<feFlood flood-opacity="0" result="BackgroundImageFix"/>
<feBlend mode="normal" in="SourceGraphic" in2="BackgroundImageFix" result="shape"/>
<feGaussianBlur stdDeviation="18.8" result="effect1_foregroundBlur_1672_5361"/>
</filter>
</defs>
</svg>
