<svg width="33" height="33" viewBox="0 0 33 33" fill="none" xmlns="http://www.w3.org/2000/svg">
<path d="M16.7344 32.626C25.6252 32.626 32.8326 25.4186 32.8326 16.5278C32.8326 7.63708 25.6252 0.429688 16.7344 0.429688C7.84362 0.429688 0.63623 7.63708 0.63623 16.5278C0.63623 25.4186 7.84362 32.626 16.7344 32.626Z" fill="#F7931A"/>
<path d="M24.4489 14.403C24.7859 12.1536 23.072 10.9441 20.7302 10.137L21.4901 7.08912L19.6356 6.62764L18.895 9.59506C18.4078 9.47272 17.9077 9.35896 17.4086 9.2452L18.1545 6.25845L16.3 5.7959L15.5402 8.84274C15.1367 8.75045 14.7396 8.6603 14.3554 8.56371L14.3575 8.55405L11.799 7.91549L11.3053 9.89664C11.3053 9.89664 12.6822 10.2122 12.6533 10.2315C13.4045 10.4193 13.5397 10.9162 13.5172 11.3111L12.6522 14.783C12.7037 14.7958 12.7702 14.8152 12.8454 14.8441L12.649 14.7958L11.4362 19.6596C11.3439 19.8872 11.111 20.2295 10.5852 20.0997C10.6045 20.1265 9.23722 19.7637 9.23722 19.7637L8.31641 21.8865L10.7311 22.4886C11.1797 22.6013 11.6197 22.7194 12.0523 22.8299L11.2849 25.9122L13.1383 26.3736L13.8982 23.3257C14.4047 23.462 14.8963 23.5887 15.3771 23.7089L14.6194 26.7439L16.4739 27.2054L17.2412 24.1296C20.4051 24.7284 22.7833 24.4869 23.7846 21.6258C24.5916 19.3226 23.7449 17.9929 22.0803 17.1269C23.2931 16.8478 24.2053 16.0504 24.4489 14.403ZM20.2097 20.3465C19.6377 22.6507 15.758 21.4047 14.5002 21.0924L15.5198 17.0088C16.7776 17.3233 20.8097 17.9446 20.2097 20.3465ZM20.7839 14.3698C20.2612 16.4658 17.033 15.4001 15.9866 15.1393L16.9096 11.4367C17.956 11.6975 21.3291 12.1836 20.7839 14.3698Z" fill="white"/>
</svg>
